<svg width="72" height="72" viewBox="0 0 72 72" fill="none" xmlns="http://www.w3.org/2000/svg">
<path d="M36 60C34.35 60 32.9375 59.4125 31.7625 58.2375C30.5875 57.0625 30 55.65 30 54C30 52.35 30.5875 50.9375 31.7625 49.7625C32.9375 48.5875 34.35 48 36 48C37.65 48 39.0625 48.5875 40.2375 49.7625C41.4125 50.9375 42 52.35 42 54C42 55.65 41.4125 57.0625 40.2375 58.2375C39.0625 59.4125 37.65 60 36 60ZM36 42C34.35 42 32.9375 41.4125 31.7625 40.2375C30.5875 39.0625 30 37.65 30 36C30 34.35 30.5875 32.9375 31.7625 31.7625C32.9375 30.5875 34.35 30 36 30C37.65 30 39.0625 30.5875 40.2375 31.7625C41.4125 32.9375 42 34.35 42 36C42 37.65 41.4125 39.0625 40.2375 40.2375C39.0625 41.4125 37.65 42 36 42ZM36 24C34.35 24 32.9375 23.4125 31.7625 22.2375C30.5875 21.0625 30 19.65 30 18C30 16.35 30.5875 14.9375 31.7625 13.7625C32.9375 12.5875 34.35 12 36 12C37.65 12 39.0625 12.5875 40.2375 13.7625C41.4125 14.9375 42 16.35 42 18C42 19.65 41.4125 21.0625 40.2375 22.2375C39.0625 23.4125 37.65 24 36 24Z" fill="#CEC8D4"/>
</svg>
